<svg width="13" height="13" viewBox="0 0 13 13" fill="none" xmlns="http://www.w3.org/2000/svg">
<rect x="0.15" y="2.75001" width="10.1" height="10.1" rx="0.85" fill="#363636" stroke="#FF7A00" stroke-width="0.3"/>
<rect x="2.74998" y="0.15" width="10.1" height="10.1" rx="0.85" fill="#363636" stroke="#FF7A00" stroke-width="0.3"/>
<path d="M10.5766 2.59106C10.5717 2.3702 10.3888 2.19509 10.1679 2.19994L6.56878 2.27896C6.34792 2.28381 6.17281 2.46678 6.17766 2.68764C6.1825 2.9085 6.36548 3.08362 6.58634 3.07877L9.78557 3.00853L9.85581 6.20776C9.86066 6.42862 10.0436 6.60373 10.2645 6.59888C10.4854 6.59403 10.6605 6.41106 10.6556 6.1902L10.5766 2.59106ZM5.48896 8.07656L10.4657 2.87641L9.88771 2.32328L4.91099 7.52343L5.48896 8.07656Z" fill="#FF7A00"/>
</svg>
