<svg width="25" height="25" viewBox="0 0 25 25" fill="none" xmlns="http://www.w3.org/2000/svg">
<g clip-path="url(#clip0_0_132)">
<path d="M24.5285 11.3864L13.6133 0.471704C12.9851 -0.156909 11.9655 -0.156909 11.3365 0.471704L9.06992 2.73831L11.9452 5.6136C12.6134 5.38782 13.3796 5.53928 13.9122 6.0719C14.4474 6.60793 14.5978 7.38069 14.3665 8.051L17.1375 10.8221C17.8079 10.5911 18.5814 10.7406 19.1169 11.2769C19.8652 12.0249 19.8652 13.2373 19.1169 13.9859C18.3684 14.7345 17.156 14.7345 16.407 13.9859C15.8441 13.4224 15.7051 12.5957 15.99 11.9023L13.4059 9.31809L13.4056 16.1186C13.5929 16.2112 13.764 16.3336 13.9122 16.4809C14.6605 17.2289 14.6605 18.4414 13.9122 19.1906C13.1637 19.9388 11.9507 19.9388 11.2032 19.1906C10.4549 18.4414 10.4549 17.229 11.2032 16.481C11.3826 16.3016 11.5957 16.1595 11.8303 16.0629V9.19905C11.5953 9.10314 11.3821 8.96097 11.2032 8.78098C10.6362 8.21477 10.4999 7.38284 10.7904 6.68665L7.95606 3.85198L0.47168 11.3359C-0.157227 11.9651 -0.157227 12.9847 0.47168 13.6134L11.3871 24.5282C12.0155 25.157 13.0349 25.157 13.6641 24.5282L24.5284 13.6641C25.1571 13.0352 25.1571 12.015 24.5284 11.3864" fill="white"/>
</g>
<defs>
<clipPath id="clip0_0_132">
<rect width="25" height="25" fill="white"/>
</clipPath>
</defs>
</svg>
