<svg width="46" height="37" viewBox="0 0 46 37" fill="none" xmlns="http://www.w3.org/2000/svg">
<g filter="url(#filter0_d_0_275)">
<path d="M11.0644 21.906C10.3577 22.5244 10.7392 23.7135 11.6443 23.7135L35.0978 23.7134C35.6463 23.7134 36.0997 23.2355 36.0998 22.6573L36.1004 2.13556C36.1004 1.27535 35.1557 0.826654 34.5184 1.38422L11.0644 21.906Z" fill="#9288FF"/>
</g>
<path d="M34.6888 21.9061C35.3955 22.5245 35.014 23.7135 34.1089 23.7135L10.6555 23.7135C10.1069 23.7135 9.65349 23.2356 9.65347 22.6574L9.65288 2.13562C9.65285 1.27541 10.5976 0.826715 11.2348 1.38428L34.6888 21.9061Z" fill="#FFAD62"/>
<path fill-rule="evenodd" clip-rule="evenodd" d="M11.6363 23.7134C10.7369 23.7064 10.3597 22.5226 11.0644 21.906L22.8765 11.5706L34.6887 21.906C35.3934 22.5226 35.0161 23.7065 34.1167 23.7134L23.0442 23.7134L11.6363 23.7134Z" fill="url(#paint0_linear_0_275)"/>
<defs>
<filter id="filter0_d_0_275" x="6.69794" y="1.138" width="33.4024" height="30.5755" filterUnits="userSpaceOnUse" color-interpolation-filters="sRGB">
<feFlood flood-opacity="0" result="BackgroundImageFix"/>
<feColorMatrix in="SourceAlpha" type="matrix" values="0 0 0 0 0 0 0 0 0 0 0 0 0 0 0 0 0 0 127 0" result="hardAlpha"/>
<feOffset dy="4"/>
<feGaussianBlur stdDeviation="2"/>
<feComposite in2="hardAlpha" operator="out"/>
<feColorMatrix type="matrix" values="0 0 0 0 0 0 0 0 0 0 0 0 0 0 0 0 0 0 0.25 0"/>
<feBlend mode="normal" in2="BackgroundImageFix" result="effect1_dropShadow_0_275"/>
<feBlend mode="normal" in="SourceGraphic" in2="effect1_dropShadow_0_275" result="shape"/>
</filter>
<linearGradient id="paint0_linear_0_275" x1="49.1786" y1="19" x2="5.89509" y2="2.2279" gradientUnits="userSpaceOnUse">
<stop offset="0.215276" stop-color="#9288FF"/>
<stop offset="0.840162" stop-color="#FFAD62"/>
</linearGradient>
</defs>
</svg>
