<svg width="25" height="25" viewBox="0 0 25 25" fill="none" xmlns="http://www.w3.org/2000/svg">
<g clip-path="url(#clip0_0_134)">
<path d="M24.6094 12.4771C24.6217 19.149 19.1807 24.6046 12.5088 24.6093C9.6272 24.6114 6.98032 23.6069 4.90029 21.9281C4.35942 21.4916 4.31899 20.681 4.8105 20.1895L5.36064 19.6394C5.78101 19.219 6.4521 19.173 6.91782 19.5425C8.45029 20.7585 10.3897 21.4844 12.5 21.4844C17.4661 21.4844 21.4844 17.4653 21.4844 12.5C21.4844 7.53394 17.4653 3.51562 12.5 3.51562C10.1165 3.51562 7.95171 4.44185 6.34434 5.95371L8.82256 8.43193C9.31475 8.92412 8.96616 9.76562 8.27017 9.76562H1.17188C0.740381 9.76562 0.390625 9.41587 0.390625 8.98437V1.88608C0.390625 1.19009 1.23213 0.841504 1.72432 1.33364L4.13506 3.74438C6.30903 1.6668 9.25547 0.390625 12.5 0.390625C19.1802 0.390625 24.597 5.7998 24.6094 12.4771ZM15.7758 16.324L16.2554 15.7073C16.6528 15.1964 16.5607 14.4601 16.0499 14.0628L14.0625 12.517V7.42187C14.0625 6.77466 13.5378 6.25 12.8906 6.25H12.1094C11.4622 6.25 10.9375 6.77466 10.9375 7.42187V14.0455L14.1313 16.5295C14.6422 16.9269 15.3784 16.8349 15.7758 16.324Z" fill="white"/>
</g>
<defs>
<clipPath id="clip0_0_134">
<rect width="25" height="25" fill="white"/>
</clipPath>
</defs>
</svg>
